<mxfile host="Electron" modified="2023-12-14T21:11:15.251Z" agent="Mozilla/5.0 (Windows NT 10.0; Win64; x64) AppleWebKit/537.36 (KHTML, like Gecko) draw.io/22.1.2 Chrome/114.0.5735.289 Electron/25.9.4 Safari/537.36" etag="c66HMRwuCc6hx5-jHyM3" version="22.1.2" type="device">
  <diagram name="PÃ¡gina-1" id="TAmgZCSkEHnbTWzDcRUJ">
    <mxGraphModel dx="1687" dy="993" grid="1" gridSize="10" guides="1" tooltips="1" connect="1" arrows="1" fold="1" page="1" pageScale="1" pageWidth="827" pageHeight="1169" math="0" shadow="0">
      <root>
        <mxCell id="0" />
        <mxCell id="1" parent="0" />
        <mxCell id="sikTr671wObaQ0UYQceW-2" value="&lt;font style=&quot;font-size: 20px;&quot;&gt;Pokemon&lt;/font&gt;" style="rounded=0;whiteSpace=wrap;html=1;" vertex="1" parent="1">
          <mxGeometry x="40" y="80" width="180" height="40" as="geometry" />
        </mxCell>
        <mxCell id="sikTr671wObaQ0UYQceW-8" style="edgeStyle=orthogonalEdgeStyle;rounded=0;orthogonalLoop=1;jettySize=auto;html=1;entryX=0;entryY=0.5;entryDx=0;entryDy=0;" edge="1" parent="1" source="sikTr671wObaQ0UYQceW-3" target="sikTr671wObaQ0UYQceW-5">
          <mxGeometry relative="1" as="geometry">
            <mxPoint x="310" y="220" as="targetPoint" />
          </mxGeometry>
        </mxCell>
        <mxCell id="sikTr671wObaQ0UYQceW-3" value="&lt;font style=&quot;font-size: 14px;&quot;&gt;id Int&lt;br&gt;name String&lt;br&gt;types Type[]&lt;br&gt;&lt;br&gt;&lt;/font&gt;" style="rounded=0;whiteSpace=wrap;html=1;align=left;verticalAlign=top;" vertex="1" parent="1">
          <mxGeometry x="40" y="120" width="180" height="200" as="geometry" />
        </mxCell>
        <mxCell id="sikTr671wObaQ0UYQceW-4" value="&lt;font style=&quot;font-size: 20px;&quot;&gt;Type&lt;br&gt;&lt;/font&gt;" style="rounded=0;whiteSpace=wrap;html=1;" vertex="1" parent="1">
          <mxGeometry x="320" y="80" width="180" height="40" as="geometry" />
        </mxCell>
        <mxCell id="sikTr671wObaQ0UYQceW-10" style="edgeStyle=orthogonalEdgeStyle;rounded=0;orthogonalLoop=1;jettySize=auto;html=1;entryX=0;entryY=0.5;entryDx=0;entryDy=0;" edge="1" parent="1" source="sikTr671wObaQ0UYQceW-5" target="sikTr671wObaQ0UYQceW-7">
          <mxGeometry relative="1" as="geometry" />
        </mxCell>
        <mxCell id="sikTr671wObaQ0UYQceW-5" value="&lt;font style=&quot;font-size: 14px;&quot;&gt;id Int&lt;br&gt;name String&lt;br&gt;typeRelations TypeRelation[]&lt;br&gt;pokemon Pokemon[]&lt;br&gt;&lt;br&gt;&lt;/font&gt;" style="rounded=0;whiteSpace=wrap;html=1;align=left;verticalAlign=top;" vertex="1" parent="1">
          <mxGeometry x="320" y="120" width="180" height="200" as="geometry" />
        </mxCell>
        <mxCell id="sikTr671wObaQ0UYQceW-6" value="&lt;font style=&quot;font-size: 20px;&quot;&gt;TypeRelation&lt;br&gt;&lt;/font&gt;" style="rounded=0;whiteSpace=wrap;html=1;" vertex="1" parent="1">
          <mxGeometry x="600" y="80" width="180" height="40" as="geometry" />
        </mxCell>
        <mxCell id="sikTr671wObaQ0UYQceW-7" value="&lt;font style=&quot;font-size: 14px;&quot;&gt;id Int&lt;br&gt;name String&lt;br&gt;types Type[]&lt;br&gt;&lt;br&gt;&lt;/font&gt;" style="rounded=0;whiteSpace=wrap;html=1;align=left;verticalAlign=top;" vertex="1" parent="1">
          <mxGeometry x="600" y="120" width="180" height="200" as="geometry" />
        </mxCell>
        <mxCell id="sikTr671wObaQ0UYQceW-9" value="n : n" style="text;html=1;strokeColor=none;fillColor=none;align=center;verticalAlign=middle;whiteSpace=wrap;rounded=0;" vertex="1" parent="1">
          <mxGeometry x="240" y="190" width="60" height="30" as="geometry" />
        </mxCell>
        <mxCell id="sikTr671wObaQ0UYQceW-11" value="1 : n" style="text;html=1;strokeColor=none;fillColor=none;align=center;verticalAlign=middle;whiteSpace=wrap;rounded=0;" vertex="1" parent="1">
          <mxGeometry x="520" y="190" width="60" height="30" as="geometry" />
        </mxCell>
      </root>
    </mxGraphModel>
  </diagram>
</mxfile>
